<svg width="745" height="748" viewBox="0 0 745 748" fill="none" xmlns="http://www.w3.org/2000/svg">
<g clip-path="url(#clip0)">
<path d="M742.066 747.077H24.08C22.543 747.077 21.298 746.531 21.298 745.859C21.298 745.187 22.543 744.64 24.08 744.64H742.066C743.602 744.64 744.848 745.186 744.848 745.859C744.848 746.532 743.602 747.077 742.066 747.077Z" fill="#3F3D56"/>
<path d="M177.714 490.171C177.223 490.395 176.751 490.659 176.303 490.958L131.451 471.815L129.85 460L111.928 459.89L112.987 486.989L172.187 502.644C172.311 503.056 172.461 503.459 172.634 503.853C173.49 505.679 174.867 507.212 176.591 508.258C178.315 509.305 180.31 509.819 182.325 509.735C184.34 509.652 186.286 508.975 187.918 507.789C189.549 506.604 190.794 504.963 191.496 503.072C192.198 501.181 192.326 499.125 191.863 497.162C191.401 495.199 190.368 493.416 188.896 492.038C187.423 490.659 185.576 489.747 183.587 489.415C181.597 489.083 179.554 489.346 177.714 490.171V490.171Z" fill="#FFB8B8"/>
<path d="M105.41 735.731H117.67L123.502 688.443L105.408 688.444L105.41 735.731Z" fill="#FFB8B8"/>
<path d="M126.428 732.228H102.784V747.114H141.314C141.314 743.166 139.746 739.38 136.954 736.588C134.162 733.796 130.376 732.228 126.428 732.228Z" fill="#2F2E41"/>
<path d="M57.7303 732.267L69.9313 733.469L80.3723 686.981L62.3653 685.207L57.7303 732.267Z" fill="#FFB8B8"/>
<path d="M78.9893 730.841L55.4592 728.523L54 743.338L92.3452 747.115C92.5368 745.17 92.3434 743.205 91.7759 741.335C91.2084 739.464 90.278 737.723 89.0377 736.212C87.7975 734.701 86.2718 733.449 84.5477 732.527C82.8236 731.605 80.9349 731.032 78.9893 730.841Z" fill="#2F2E41"/>
<path d="M101.998 409.844C88.4331 409.844 77.4368 398.848 77.4368 385.283C77.4368 371.719 88.4331 360.722 101.998 360.722C115.562 360.722 126.559 371.719 126.559 385.283C126.559 398.848 115.562 409.844 101.998 409.844Z" fill="#FFB8B8"/>
<path d="M120.41 726.168C121.464 726.17 122.484 725.801 123.292 725.124C124.1 724.448 124.643 723.508 124.825 722.47C131.171 687.245 151.913 572.065 152.409 568.875C152.42 568.801 152.425 568.727 152.425 568.653V560.065C152.425 559.752 152.328 559.447 152.145 559.193L149.405 555.355C149.275 555.171 149.104 555.018 148.906 554.91C148.708 554.802 148.487 554.74 148.261 554.73C132.639 553.998 81.4773 551.851 79.0056 554.939C76.5232 558.043 77.4001 567.446 77.6013 569.299L77.5915 569.493L54.6062 716.488C54.4263 717.66 54.7152 718.856 55.4104 719.817C56.1056 720.778 57.1512 721.427 58.321 721.623L72.6775 723.988C73.7467 724.16 74.842 723.942 75.7642 723.374C76.6865 722.807 77.3744 721.927 77.7028 720.895C82.1433 706.707 97.0319 658.977 102.192 640.508C102.224 640.391 102.298 640.29 102.399 640.224C102.501 640.157 102.623 640.13 102.743 640.147C102.863 640.164 102.973 640.224 103.052 640.316C103.131 640.408 103.174 640.526 103.173 640.647C102.915 658.253 102.292 703.171 102.077 718.684L102.053 720.355C102.044 721.486 102.459 722.58 103.217 723.42C103.975 724.26 105.02 724.785 106.146 724.891L119.99 726.149C120.131 726.162 120.271 726.168 120.41 726.168Z" fill="#2F2E41"/>
<path d="M117.585 419.502C121.872 422.05 124.437 426.732 125.908 431.497C128.633 440.318 130.273 449.439 130.793 458.657L132.348 486.257L151.603 559.427C134.915 573.547 125.288 570.338 102.823 558.788C80.3577 547.238 77.7906 562.639 77.7906 562.639L73.2982 500.381L66.8798 432.348C68.3205 430.613 69.9512 429.046 71.7413 427.674C77.6739 423.061 84.5762 419.854 91.9281 418.296C99.28 416.738 106.89 416.869 114.184 418.679L117.585 419.502Z" fill="#FF6863"/>
<path d="M123.84 504.949C123.322 505.144 122.82 505.379 122.339 505.653L77.9908 483.455L77.2547 471.43L58.961 470.169L57.9805 497.581L117.246 517.181C117.73 519.256 118.835 521.135 120.413 522.568C121.99 524.001 123.967 524.919 126.08 525.201C128.192 525.483 130.341 525.115 132.239 524.146C134.137 523.177 135.696 521.654 136.707 519.778C137.718 517.901 138.135 515.762 137.9 513.644C137.666 511.525 136.792 509.528 135.395 507.919C133.999 506.309 132.145 505.163 130.081 504.632C128.016 504.102 125.84 504.212 123.84 504.949Z" fill="#FFB8B8"/>
<path d="M67.2008 432.66C56.2893 436.511 54.3672 478.233 54.3672 478.233C67.2039 471.173 82.6086 482.727 82.6086 482.727C82.6086 482.727 85.8178 471.815 89.669 457.694C90.8319 453.723 90.9709 449.521 90.0732 445.481C89.1754 441.441 87.2701 437.694 84.5346 434.588C84.5346 434.588 78.1123 428.806 67.2008 432.66Z" fill="#FF6863"/>
<path d="M79.9751 391.779C83.0351 389.33 87.2103 393.78 87.2103 393.78L89.6586 371.747C89.6586 371.747 104.96 373.58 114.752 371.135C124.545 368.691 126.075 380.01 126.075 380.01C126.58 375.438 126.682 370.83 126.381 366.24C125.769 360.731 117.812 355.223 103.735 351.55C89.6587 347.878 82.3145 363.791 82.3145 363.791C72.5209 368.687 76.9151 394.227 79.9751 391.779Z" fill="#2F2E41"/>
<path d="M726.365 177.983H722.273V65.883C722.273 57.3624 720.595 48.9253 717.334 41.0534C714.073 33.1814 709.294 26.0287 703.269 20.0038C697.244 13.9788 690.092 9.19959 682.22 5.93892C674.348 2.67824 665.911 1 657.39 1H419.883C402.675 1 386.172 7.83587 374.004 20.0038C361.836 32.1717 355 48.675 355 65.883V680.883C355 689.404 356.678 697.841 359.939 705.713C363.2 713.585 367.979 720.737 374.004 726.762C380.029 732.787 387.181 737.566 395.053 740.827C402.925 744.088 411.362 745.766 419.883 745.766H657.39C674.598 745.766 691.101 738.93 703.269 726.762C715.436 714.594 722.272 698.091 722.272 680.883V257.778H726.364L726.365 177.983Z" fill="#E6E6E6"/>
<path d="M660.008 17.874H629.008C630.434 21.3696 630.978 25.1622 630.592 28.9177C630.207 32.6731 628.904 36.2762 626.798 39.4094C624.692 42.5426 621.848 45.1098 618.516 46.8848C615.184 48.6598 611.467 49.5882 607.692 49.588H471.627C467.852 49.5878 464.135 48.6593 460.803 46.8841C457.472 45.109 454.628 42.5418 452.522 39.4086C450.416 36.2754 449.113 32.6725 448.728 28.9172C448.343 25.1619 448.887 21.3695 450.313 17.874H421.357C408.506 17.874 396.182 22.979 387.095 32.0659C378.008 41.1528 372.903 53.4772 372.903 66.328V680.435C372.903 693.286 378.008 705.61 387.095 714.697C396.182 723.784 408.506 728.889 421.357 728.889H660.008C672.859 728.889 685.183 723.784 694.27 714.697C703.357 705.61 708.462 693.286 708.462 680.435V680.435V66.327C708.462 53.4764 703.357 41.1522 694.27 32.0655C685.183 22.9788 672.858 17.874 660.008 17.874V17.874Z" fill="white"/>
<path d="M497.516 435.804C501.328 435.804 504.418 432.714 504.418 428.902C504.418 425.09 501.328 422 497.516 422C493.704 422 490.614 425.09 490.614 428.902C490.614 432.714 493.704 435.804 497.516 435.804Z" fill="#FF6863"/>
<path d="M520.516 435.804C524.328 435.804 527.418 432.714 527.418 428.902C527.418 425.09 524.328 422 520.516 422C516.704 422 513.614 425.09 513.614 428.902C513.614 432.714 516.704 435.804 520.516 435.804Z" fill="#FF6863"/>
<path d="M643.728 448.102H425.176V450.149H643.728V448.102Z" fill="#CCCCCC"/>
<path d="M432.078 435.322C435.89 435.322 438.98 432.232 438.98 428.42C438.98 424.608 435.89 421.518 432.078 421.518C428.266 421.518 425.176 424.608 425.176 428.42C425.176 432.232 428.266 435.322 432.078 435.322Z" fill="#FF6863"/>
<path d="M639.182 543.208H570.114C568.921 543.207 567.777 542.732 566.933 541.889C566.09 541.045 565.615 539.901 565.614 538.708V514.5C565.615 513.307 566.09 512.163 566.933 511.319C567.777 510.476 568.921 510.001 570.114 510H639.182C640.375 510.001 641.519 510.476 642.363 511.319C643.207 512.163 643.681 513.307 643.682 514.5V538.708C643.681 539.901 643.207 541.045 642.363 541.889C641.519 542.732 640.375 543.207 639.182 543.208V543.208Z" fill="#FF6863"/>
<path d="M454.592 435.322C458.404 435.322 461.494 432.232 461.494 428.42C461.494 424.608 458.404 421.518 454.592 421.518C450.78 421.518 447.69 424.608 447.69 428.42C447.69 432.232 450.78 435.322 454.592 435.322Z" fill="#FF6863"/>
<path d="M477.106 435.322C480.918 435.322 484.008 432.232 484.008 428.42C484.008 424.608 480.918 421.518 477.106 421.518C473.294 421.518 470.204 424.608 470.204 428.42C470.204 432.232 473.294 435.322 477.106 435.322Z" fill="#FF6863"/>
<path d="M498.614 309.667H582.614V333H498.614V309.667Z" fill="#FECFCE"/>
<path d="M498.614 288.667C498.614 288.667 498.614 288.667 498.614 288.667C498.614 266.759 516.373 249 538.281 249H542.947C564.855 249 582.614 266.759 582.614 288.667V293.333C582.614 315.241 564.855 333 542.947 333H538.281C516.373 333 498.614 315.23 498.614 293.322C498.614 290.025 498.614 288.667 498.614 288.667Z" fill="#FECFCE"/>
<path d="M546.213 302.6H542.48V298.867H546.213V302.6ZM542.48 289.534H538.747V298.867H542.48V289.534ZM557.413 285.8H553.68V293.267H557.413V285.8ZM553.68 282.067H549.947V285.8H553.68V282.067ZM531.28 285.8H527.547V289.534H531.28V285.8ZM527.547 282.067H523.813V285.8H527.547V282.067ZM540.613 272.734H544.347V269H540.613V272.734ZM526.613 271.8V277.4H532.213V271.8H526.613ZM535.013 280.2H523.813V269H535.013V280.2ZM526.613 294.2V299.8H532.213V294.2H526.613ZM535.013 302.6H523.813V291.4H535.013V302.6ZM549.013 271.8V277.4H554.613V271.8H549.013ZM557.413 280.2H546.213V269H557.413V280.2ZM553.68 298.867V293.267H546.213V297H549.947V302.6H557.413V298.867H553.68ZM549.947 285.8H542.48V289.534H549.947V285.8ZM542.48 282.067H531.28V285.8H535.013V289.534H538.747V285.8H542.48V282.067ZM544.347 280.2V276.467H540.613V272.734H536.88V280.2H544.347ZM530.813 273.2H528.013V276H530.813V273.2ZM530.813 295.6H528.013V298.4H530.813V295.6ZM553.213 273.2H550.413V276H553.213V273.2Z" fill="#D50000"/>
<path d="M528.014 245C528.014 242.791 529.895 241 532.214 241H549.014C551.334 241 553.214 242.791 553.214 245V249C553.214 251.209 551.334 253 549.014 253H532.214C529.895 253 528.014 251.209 528.014 249V245Z" fill="#FECFCE" stroke="#FF6863" stroke-width="1.1"/>
<path d="M536.414 222.6C536.414 221.716 537.166 221 538.094 221H543.134C544.062 221 544.814 221.716 544.814 222.6V239.4C544.814 240.284 544.062 241 543.134 241H538.094C537.166 241 536.414 240.284 536.414 239.4V222.6Z" fill="#FF6863"/>
<path d="M532.214 229H540.614V233H532.214V229Z" fill="#FF6863"/>
<path d="M528.014 227C528.014 225.895 528.954 225 530.114 225C531.274 225 532.214 225.895 532.214 227V235C532.214 236.105 531.274 237 530.114 237C528.954 237 528.014 236.105 528.014 235V227Z" fill="#FF6863"/>
<path fill-rule="evenodd" clip-rule="evenodd" d="M532.214 257H549.014C563.859 257 575.894 271.327 575.894 289V328.333H582.614V289C582.614 266.909 567.571 249 549.014 249H532.214C513.657 249 498.614 266.909 498.614 289V328.333H505.334V289C505.334 271.327 517.369 257 532.214 257Z" fill="#FF6863"/>
<path fill-rule="evenodd" clip-rule="evenodd" d="M470.614 206.333L470.614 239.667L483.947 239.667L483.947 206.333L470.614 206.333ZM470.614 193L470.614 206.333L517.281 206.333L517.281 193L470.614 193Z" fill="#0091EA"/>
<path fill-rule="evenodd" clip-rule="evenodd" d="M483.947 333L517.281 333L517.281 319.667L483.947 319.667L483.947 333ZM470.614 333L483.947 333L483.947 286.333L470.614 286.333L470.614 333Z" fill="#0091EA"/>
<path fill-rule="evenodd" clip-rule="evenodd" d="M610.614 319.667L610.614 286.333L597.281 286.333L597.281 319.667L610.614 319.667ZM610.614 333L610.614 319.667L563.947 319.667L563.947 333L610.614 333Z" fill="#0091EA"/>
<path fill-rule="evenodd" clip-rule="evenodd" d="M597.281 193H563.947V206.333H597.281V193ZM610.614 193H597.281V239.667H610.614V193Z" fill="#0091EA"/>
<circle cx="285" cy="491" r="43" fill="#FF6863"/>
<path d="M291 495C285.66 495 275 497.66 275 503V507H307V503C307 497.66 296.34 495 291 495ZM273 487V481H269V487H263V491H269V497H273V491H279V487H273ZM291 491C293.122 491 295.157 490.157 296.657 488.657C298.157 487.157 299 485.122 299 483C299 480.878 298.157 478.843 296.657 477.343C295.157 475.843 293.122 475 291 475C288.878 475 286.843 475.843 285.343 477.343C283.843 478.843 283 480.878 283 483C283 485.122 283.843 487.157 285.343 488.657C286.843 490.157 288.878 491 291 491Z" fill="white"/>
</g>
<defs>
<clipPath id="clip0">
<rect width="744.848" height="747.077" fill="white"/>
</clipPath>
</defs>
</svg>
