<svg width="32" height="32" viewBox="0 0 32 32" fill="none" xmlns="http://www.w3.org/2000/svg">
<g clip-path="url(#clip0)">
<path d="M5.33325 27.7333H26.6666V32H5.33325V27.7333Z" fill="#FECFCE"/>
<path d="M5.33325 19.7333C5.33325 14.7259 9.39254 10.6666 14.3999 10.6666H17.5999C22.6073 10.6666 26.6666 14.7259 26.6666 19.7333V22.9333C26.6666 27.9407 22.6073 32 17.5999 32H14.3999C9.39254 32 5.33325 27.9407 5.33325 22.9333V19.7333Z" fill="#FECFCE"/>
<path d="M17.6592 24.2793H16.6715V23.2916H17.6592V24.2793ZM16.6715 20.8225H15.6839V23.2916H16.6715V20.8225ZM20.6222 19.8348H19.6345V21.8101H20.6222V19.8348ZM19.6345 18.8472H18.6469V19.8348H19.6345V18.8472ZM13.7086 19.8348H12.7209V20.8225H13.7086V19.8348ZM12.7209 18.8472H11.7333V19.8348H12.7209V18.8472ZM16.1777 16.378H17.1654V15.3904H16.1777V16.378ZM12.474 16.1311V17.6126H13.9555V16.1311H12.474ZM14.6962 18.3533H11.7333V15.3904H14.6962V18.3533ZM12.474 22.057V23.5385H13.9555V22.057H12.474ZM14.6962 24.2793H11.7333V21.3163H14.6962V24.2793ZM18.3999 16.1311V17.6126H19.8814V16.1311H18.3999ZM20.6222 18.3533H17.6592V15.3904H20.6222V18.3533ZM19.6345 23.2916V21.8101H17.6592V22.7978H18.6469V24.2793H20.6222V23.2916H19.6345ZM18.6469 19.8348H16.6715V20.8225H18.6469V19.8348ZM16.6715 18.8472H13.7086V19.8348H14.6962V20.8225H15.6839V19.8348H16.6715V18.8472ZM17.1654 18.3533V17.3657H16.1777V16.378H15.1901V18.3533H17.1654ZM13.5851 16.5015H12.8444V17.2422H13.5851V16.5015ZM13.5851 22.4274H12.8444V23.1682H13.5851V22.4274ZM19.5111 16.5015H18.7703V17.2422H19.5111V16.5015Z" fill="#D50000"/>
<path d="M12.8 9.29517C12.8 8.73412 13.2776 8.2793 13.8667 8.2793H18.1334C18.7225 8.2793 19.2 8.73412 19.2 9.29517V10.311C19.2 10.8721 18.7225 11.3269 18.1334 11.3269H13.8667C13.2776 11.3269 12.8 10.8721 12.8 10.311V9.29517Z" fill="#FECFCE" stroke="#FF6863" stroke-width="1.1"/>
<path d="M14.9334 3.6063C14.9334 3.38188 15.1244 3.19995 15.36 3.19995H16.64C16.8757 3.19995 17.0667 3.38188 17.0667 3.6063V7.87297C17.0667 8.09739 16.8757 8.27932 16.64 8.27932H15.36C15.1244 8.27932 14.9334 8.09739 14.9334 7.87297V3.6063Z" fill="#FF6863"/>
<path d="M13.8667 5.2317H16V6.24757H13.8667V5.2317Z" fill="#FF6863"/>
<path d="M12.8 4.72376C12.8 4.44324 13.0388 4.21582 13.3334 4.21582C13.6279 4.21582 13.8667 4.44324 13.8667 4.72376V6.75551C13.8667 7.03603 13.6279 7.26344 13.3334 7.26344C13.0388 7.26344 12.8 7.03603 12.8 6.75551V4.72376Z" fill="#FF6863"/>
<path fill-rule="evenodd" clip-rule="evenodd" d="M13.8666 12.3428H18.1333C21.9035 12.3428 24.9599 15.9814 24.9599 20.4698V30.9332H26.6666V20.4698C26.6666 14.8593 22.8461 10.311 18.1333 10.311H13.8666C9.15376 10.311 5.33325 14.8593 5.33325 20.4698V57.0412C5.33325 57.0541 5.33327 57.0671 5.33331 57.08V30.9332H7.03992V20.4698C7.03992 15.9814 10.0963 12.3428 13.8666 12.3428ZM13.8454 67.1999C13.8525 67.1999 13.8595 67.1999 13.8666 67.1999H18.1333C18.1403 67.1999 18.1474 67.1999 18.1544 67.1999H13.8454Z" fill="#FF6863"/>
<path fill-rule="evenodd" clip-rule="evenodd" d="M-3.33039e-07 3.04765L0 10.6667L3.04762 10.6667L3.04762 3.04765L-3.33039e-07 3.04765ZM-4.66255e-07 1.98285e-05L-3.33039e-07 3.04763L10.6667 3.04763L10.6667 1.93623e-05L-4.66255e-07 1.98285e-05Z" fill="#0091EA"/>
<path fill-rule="evenodd" clip-rule="evenodd" d="M3.04771 32L10.6667 32L10.6667 28.9524L3.04771 28.9524L3.04771 32ZM8.00292e-05 32L3.04769 32L3.04769 21.3333L8.09617e-05 21.3333L8.00292e-05 32Z" fill="#0091EA"/>
<path fill-rule="evenodd" clip-rule="evenodd" d="M32 28.9523L32 21.3333L28.9524 21.3333L28.9524 28.9523L32 28.9523ZM32 32L32 28.9524L21.3333 28.9524L21.3333 32L32 32Z" fill="#0091EA"/>
<path fill-rule="evenodd" clip-rule="evenodd" d="M28.9523 0H21.3333V3.04762H28.9523V0ZM31.9999 0H28.9523V10.6667H31.9999V0Z" fill="#0091EA"/>
</g>
<defs>
<clipPath id="clip0">
<rect width="32" height="32" fill="white"/>
</clipPath>
</defs>
</svg>
