<svg width="196" height="36" viewBox="0 0 196 36" fill="none" xmlns="http://www.w3.org/2000/svg">
<path d="M53.394 29.6C50.7665 29.6 48.7307 28.92 47.2865 27.56C45.8625 26.18 45.1103 24.11 45.0301 21.35C45.01 20.75 45 19.9 45 18.8C45 17.7 45.01 16.86 45.0301 16.28C45.1103 13.58 45.8925 11.53 47.3768 10.13C48.861 8.71 50.8668 8 53.394 8C55.9011 8 57.8968 8.71 59.3811 10.13C60.8653 11.53 61.6475 13.58 61.7278 16.28C61.7679 17.44 61.7879 18.28 61.7879 18.8C61.7879 19.3 61.7679 20.15 61.7278 21.35C61.6475 24.11 60.8854 26.18 59.4412 27.56C58.0172 28.92 56.0014 29.6 53.394 29.6ZM53.394 27.05C54.9785 27.05 56.2421 26.57 57.1848 25.61C58.1275 24.65 58.6389 23.18 58.7192 21.2C58.7593 20 58.7793 19.2 58.7793 18.8C58.7793 18.36 58.7593 17.56 58.7192 16.4C58.6389 14.42 58.1175 12.95 57.1547 11.99C56.212 11.03 54.9584 10.55 53.394 10.55C51.8094 10.55 50.5358 11.03 49.5731 11.99C48.6304 12.95 48.1189 14.42 48.0387 16.4C48.0186 16.98 48.0086 17.78 48.0086 18.8C48.0086 19.8 48.0186 20.6 48.0387 21.2C48.1189 23.18 48.6304 24.65 49.5731 25.61C50.5358 26.57 51.8094 27.05 53.394 27.05Z" fill="#FF6863"/>
<path d="M65.0013 29.3C64.8408 29.3 64.6904 29.24 64.55 29.12C64.4296 29 64.3694 28.85 64.3694 28.67C64.3694 28.49 64.4396 28.31 64.58 28.13L69.815 21.32L64.911 14.87C64.7706 14.71 64.7004 14.53 64.7004 14.33C64.7004 14.15 64.7606 14 64.8809 13.88C65.0013 13.76 65.1517 13.7 65.3322 13.7H66.8666C67.1674 13.7 67.4282 13.86 67.6488 14.18L71.6502 19.37L75.6517 14.21C75.772 14.05 75.8823 13.93 75.9826 13.85C76.103 13.75 76.2534 13.7 76.4339 13.7H77.9081C78.0886 13.7 78.2391 13.76 78.3594 13.88C78.4797 14 78.5399 14.15 78.5399 14.33C78.5399 14.53 78.4697 14.71 78.3293 14.87L73.3651 21.38L78.6001 28.13C78.7405 28.31 78.8107 28.49 78.8107 28.67C78.8107 28.85 78.7505 29 78.6302 29.12C78.5098 29.24 78.3594 29.3 78.1789 29.3H76.5843C76.2835 29.3 76.0227 29.15 75.8021 28.85L71.5901 23.36L67.3179 28.85C67.1975 28.99 67.0772 29.1 66.9568 29.18C66.8565 29.26 66.7161 29.3 66.5356 29.3H65.0013Z" fill="#FF6863"/>
<path d="M84.6793 35C84.5189 35 84.3785 34.94 84.2581 34.82C84.1378 34.7 84.0776 34.56 84.0776 34.4C84.0776 34.26 84.1277 34.08 84.228 33.86L86.5446 28.37L80.7982 14.84C80.6979 14.58 80.6478 14.41 80.6478 14.33C80.6478 14.15 80.708 14 80.8283 13.88C80.9487 13.76 81.0991 13.7 81.2796 13.7H82.7538C83.0747 13.7 83.3154 13.87 83.4759 14.21L88.0489 25.13L92.7423 14.21C92.9028 13.87 93.1535 13.7 93.4945 13.7H94.9085C95.089 13.7 95.2395 13.76 95.3598 13.88C95.4802 14 95.5403 14.14 95.5403 14.3C95.5403 14.36 95.4902 14.54 95.3899 14.84L86.8455 34.49C86.685 34.83 86.4343 35 86.0934 35H84.6793Z" fill="#FF6863"/>
<path d="M101.819 29.3C101.618 29.3 101.448 29.24 101.307 29.12C101.187 28.98 101.127 28.81 101.127 28.61V10.97H95.3502C95.1496 10.97 94.9791 10.91 94.8387 10.79C94.7184 10.65 94.6582 10.48 94.6582 10.28V9.02C94.6582 8.82 94.7184 8.65 94.8387 8.51C94.9791 8.37 95.1496 8.3 95.3502 8.3H109.852C110.072 8.3 110.243 8.37 110.363 8.51C110.503 8.63 110.574 8.8 110.574 9.02V10.28C110.574 10.48 110.503 10.65 110.363 10.79C110.223 10.91 110.052 10.97 109.852 10.97H104.105V28.61C104.105 28.81 104.035 28.98 103.895 29.12C103.754 29.24 103.584 29.3 103.383 29.3H101.819Z" fill="#FF6863"/>
<path d="M111.809 29.3C111.608 29.3 111.438 29.24 111.297 29.12C111.177 28.98 111.117 28.81 111.117 28.61V14.42C111.117 14.22 111.177 14.05 111.297 13.91C111.438 13.77 111.608 13.7 111.809 13.7H113.193C113.393 13.7 113.564 13.77 113.704 13.91C113.844 14.05 113.915 14.22 113.915 14.42V15.74C114.737 14.38 116.141 13.7 118.127 13.7H119.3C119.501 13.7 119.661 13.77 119.781 13.91C119.922 14.03 119.992 14.19 119.992 14.39V15.62C119.992 15.82 119.922 15.98 119.781 16.1C119.661 16.22 119.501 16.28 119.3 16.28H117.495C116.412 16.28 115.559 16.6 114.938 17.24C114.316 17.86 114.005 18.71 114.005 19.79V28.61C114.005 28.81 113.935 28.98 113.794 29.12C113.654 29.24 113.483 29.3 113.283 29.3H111.809Z" fill="#FF6863"/>
<path d="M126.673 29.6C125.69 29.6 124.778 29.4 123.935 29C123.093 28.6 122.421 28.06 121.92 27.38C121.438 26.68 121.197 25.91 121.197 25.07C121.197 23.75 121.739 22.67 122.822 21.83C123.925 20.97 125.41 20.41 127.275 20.15L131.758 19.52V18.65C131.758 16.61 130.584 15.59 128.238 15.59C127.355 15.59 126.633 15.78 126.071 16.16C125.51 16.52 125.089 16.95 124.808 17.45C124.748 17.63 124.667 17.76 124.567 17.84C124.487 17.92 124.367 17.96 124.206 17.96H122.912C122.732 17.96 122.571 17.9 122.431 17.78C122.311 17.64 122.251 17.48 122.251 17.3C122.271 16.82 122.491 16.28 122.912 15.68C123.354 15.06 124.026 14.53 124.928 14.09C125.831 13.63 126.944 13.4 128.268 13.4C130.514 13.4 132.129 13.93 133.112 14.99C134.094 16.03 134.586 17.33 134.586 18.89V28.61C134.586 28.81 134.516 28.98 134.375 29.12C134.255 29.24 134.094 29.3 133.894 29.3H132.51C132.309 29.3 132.139 29.24 131.998 29.12C131.878 28.98 131.818 28.81 131.818 28.61V27.32C131.377 27.96 130.735 28.5 129.892 28.94C129.05 29.38 127.977 29.6 126.673 29.6ZM127.305 27.35C128.609 27.35 129.672 26.93 130.494 26.09C131.336 25.23 131.758 24 131.758 22.4V21.56L128.268 22.07C126.844 22.27 125.771 22.61 125.048 23.09C124.326 23.55 123.965 24.14 123.965 24.86C123.965 25.66 124.296 26.28 124.958 26.72C125.62 27.14 126.402 27.35 127.305 27.35Z" fill="#FF6863"/>
<path d="M145.229 29.6C143.083 29.6 141.398 29 140.174 27.8C138.971 26.58 138.329 24.88 138.249 22.7L138.219 21.5L138.249 20.3C138.329 18.12 138.971 16.43 140.174 15.23C141.398 14.01 143.083 13.4 145.229 13.4C146.673 13.4 147.896 13.66 148.899 14.18C149.902 14.7 150.644 15.34 151.126 16.1C151.627 16.86 151.898 17.62 151.938 18.38C151.958 18.58 151.898 18.74 151.757 18.86C151.617 18.98 151.447 19.04 151.246 19.04H149.802C149.601 19.04 149.451 19 149.351 18.92C149.25 18.84 149.15 18.68 149.05 18.44C148.709 17.48 148.227 16.8 147.606 16.4C146.984 15.98 146.202 15.77 145.259 15.77C144.015 15.77 143.023 16.16 142.28 16.94C141.558 17.7 141.167 18.87 141.107 20.45L141.077 21.53L141.107 22.55C141.167 24.15 141.558 25.33 142.28 26.09C143.002 26.85 143.995 27.23 145.259 27.23C146.202 27.23 146.984 27.03 147.606 26.63C148.227 26.21 148.709 25.52 149.05 24.56C149.15 24.32 149.25 24.16 149.351 24.08C149.451 23.98 149.601 23.93 149.802 23.93H151.246C151.447 23.93 151.617 24 151.757 24.14C151.898 24.26 151.958 24.42 151.938 24.62C151.898 25.36 151.627 26.12 151.126 26.9C150.644 27.66 149.902 28.3 148.899 28.82C147.917 29.34 146.693 29.6 145.229 29.6Z" fill="#FF6863"/>
<path d="M156.233 29.3C156.032 29.3 155.862 29.24 155.722 29.12C155.601 28.98 155.541 28.81 155.541 28.61V8.69C155.541 8.49 155.601 8.33 155.722 8.21C155.862 8.07 156.032 8 156.233 8H157.647C157.848 8 158.008 8.07 158.128 8.21C158.269 8.33 158.339 8.49 158.339 8.69V19.13L164.266 14.21C164.326 14.17 164.426 14.09 164.567 13.97C164.707 13.87 164.838 13.8 164.958 13.76C165.098 13.72 165.269 13.7 165.469 13.7H167.064C167.244 13.7 167.395 13.76 167.515 13.88C167.636 14 167.696 14.15 167.696 14.33C167.696 14.55 167.575 14.74 167.335 14.9L160.385 20.66L168.087 28.13C168.328 28.33 168.448 28.51 168.448 28.67C168.448 28.85 168.388 29 168.267 29.12C168.147 29.24 167.997 29.3 167.816 29.3H166.252C165.951 29.3 165.73 29.27 165.59 29.21C165.469 29.15 165.289 29.01 165.048 28.79L158.339 22.4V28.61C158.339 28.81 158.269 28.98 158.128 29.12C158.008 29.24 157.848 29.3 157.647 29.3H156.233Z" fill="#FF6863"/>
<path d="M176.547 29.6C174.481 29.6 172.827 28.97 171.583 27.71C170.36 26.43 169.688 24.69 169.567 22.49L169.537 21.47L169.567 20.48C169.708 18.32 170.39 16.6 171.613 15.32C172.857 14.04 174.491 13.4 176.517 13.4C178.744 13.4 180.469 14.11 181.692 15.53C182.916 16.93 183.527 18.83 183.527 21.23V21.74C183.527 21.94 183.457 22.11 183.317 22.25C183.196 22.37 183.036 22.43 182.835 22.43H172.426V22.7C172.486 24 172.877 25.11 173.599 26.03C174.341 26.93 175.314 27.38 176.517 27.38C177.44 27.38 178.192 27.2 178.774 26.84C179.375 26.46 179.817 26.07 180.097 25.67C180.278 25.43 180.408 25.29 180.489 25.25C180.589 25.19 180.759 25.16 181 25.16H182.474C182.655 25.16 182.805 25.21 182.926 25.31C183.046 25.41 183.106 25.55 183.106 25.73C183.106 26.17 182.825 26.7 182.264 27.32C181.722 27.94 180.95 28.48 179.947 28.94C178.964 29.38 177.831 29.6 176.547 29.6ZM180.669 20.36V20.27C180.669 18.89 180.288 17.77 179.526 16.91C178.784 16.03 177.781 15.59 176.517 15.59C175.254 15.59 174.251 16.03 173.509 16.91C172.787 17.77 172.426 18.89 172.426 20.27V20.36H180.669Z" fill="#FF6863"/>
<path d="M187.817 29.3C187.616 29.3 187.446 29.24 187.305 29.12C187.185 28.98 187.125 28.81 187.125 28.61V14.42C187.125 14.22 187.185 14.05 187.305 13.91C187.446 13.77 187.616 13.7 187.817 13.7H189.201C189.401 13.7 189.572 13.77 189.712 13.91C189.852 14.05 189.923 14.22 189.923 14.42V15.74C190.745 14.38 192.149 13.7 194.135 13.7H195.308C195.509 13.7 195.669 13.77 195.789 13.91C195.93 14.03 196 14.19 196 14.39V15.62C196 15.82 195.93 15.98 195.789 16.1C195.669 16.22 195.509 16.28 195.308 16.28H193.503C192.42 16.28 191.567 16.6 190.946 17.24C190.324 17.86 190.013 18.71 190.013 19.79V28.61C190.013 28.81 189.943 28.98 189.802 29.12C189.662 29.24 189.491 29.3 189.291 29.3H187.817Z" fill="#FF6863"/>
<path d="M6 31.2H30V36H6V31.2Z" fill="#FECFCE"/>
<path d="M6 22.2C6 16.5667 10.5667 12 16.2 12H19.8C25.4333 12 30 16.5667 30 22.2V25.8C30 31.4333 25.4333 36 19.8 36H16.2C10.5667 36 6 31.4333 6 25.8V22.2Z" fill="#FECFCE"/>
<path d="M19.8666 27.3143H18.7555V26.2032H19.8666V27.3143ZM18.7555 23.4254H17.6444V26.2032H18.7555V23.4254ZM23.2 22.3143H22.0888V24.5365H23.2V22.3143ZM22.0888 21.2032H20.9777V22.3143H22.0888V21.2032ZM15.4222 22.3143H14.3111V23.4254H15.4222V22.3143ZM14.3111 21.2032H13.2V22.3143H14.3111V21.2032ZM18.2 18.4254H19.3111V17.3143H18.2V18.4254ZM14.0333 18.1476V19.8143H15.7V18.1476H14.0333ZM16.5333 20.6476H13.2V17.3143H16.5333V20.6476ZM14.0333 24.8143V26.481H15.7V24.8143H14.0333ZM16.5333 27.3143H13.2V23.981H16.5333V27.3143ZM20.7 18.1476V19.8143H22.3666V18.1476H20.7ZM23.2 20.6476H19.8666V17.3143H23.2V20.6476ZM22.0888 26.2032V24.5365H19.8666V25.6476H20.9777V27.3143H23.2V26.2032H22.0888ZM20.9777 22.3143H18.7555V23.4254H20.9777V22.3143ZM18.7555 21.2032H15.4222V22.3143H16.5333V23.4254H17.6444V22.3143H18.7555V21.2032ZM19.3111 20.6476V19.5365H18.2V18.4254H17.0888V20.6476H19.3111ZM15.2833 18.5643H14.45V19.3976H15.2833V18.5643ZM15.2833 25.231H14.45V26.0643H15.2833V25.231ZM21.95 18.5643H21.1166V19.3976H21.95V18.5643Z" fill="#D50000"/>
<path d="M14.4 10.4571C14.4 9.82596 14.9373 9.31428 15.6 9.31428H20.4C21.0628 9.31428 21.6 9.82596 21.6 10.4571V11.6C21.6 12.2312 21.0628 12.7429 20.4 12.7429H15.6C14.9373 12.7429 14.4 12.2312 14.4 11.6V10.4571Z" fill="#FECFCE" stroke="#FF6863" stroke-width="1.1"/>
<path d="M16.8 4.05714C16.8 3.80467 17.0149 3.6 17.28 3.6H18.72C18.9851 3.6 19.2 3.80467 19.2 4.05714V8.85714C19.2 9.10962 18.9851 9.31429 18.72 9.31429H17.28C17.0149 9.31429 16.8 9.10962 16.8 8.85714V4.05714Z" fill="#FF6863"/>
<path d="M15.6 5.88571H18V7.02857H15.6V5.88571Z" fill="#FF6863"/>
<path d="M14.4 5.31429C14.4 4.99869 14.6687 4.74286 15 4.74286C15.3314 4.74286 15.6 4.99869 15.6 5.31429V7.6C15.6 7.91559 15.3314 8.17143 15 8.17143C14.6687 8.17143 14.4 7.91559 14.4 7.6V5.31429Z" fill="#FF6863"/>
<path fill-rule="evenodd" clip-rule="evenodd" d="M15.6 13.8857H20.4C24.6415 13.8857 28.08 17.9791 28.08 23.0286V34.8H30V23.0286C30 16.7167 25.7019 11.6 20.4 11.6H15.6C10.2981 11.6 6 16.7167 6 23.0286V34.8H7.92V23.0286C7.92 17.9791 11.3585 13.8857 15.6 13.8857Z" fill="#FF6863"/>
<path fill-rule="evenodd" clip-rule="evenodd" d="M-3.74668e-07 3.42859L0 12L3.42857 12L3.42857 3.42859L-3.74668e-07 3.42859ZM-5.24537e-07 3.57672e-07L-3.74669e-07 3.42857L12 3.42856L12 -1.66865e-07L-5.24537e-07 3.57672e-07Z" fill="#0091EA"/>
<path fill-rule="evenodd" clip-rule="evenodd" d="M3.42859 36L12 36L12 32.5714L3.42859 32.5714L3.42859 36ZM-1.31126e-06 36L3.42856 36L3.42857 24L-2.62188e-07 24L-1.31126e-06 36Z" fill="#0091EA"/>
<path fill-rule="evenodd" clip-rule="evenodd" d="M36 32.5714L36 24L32.5714 24L32.5714 32.5714L36 32.5714ZM36 36L36 32.5714L24 32.5714L24 36L36 36Z" fill="#0091EA"/>
<path fill-rule="evenodd" clip-rule="evenodd" d="M32.5714 0H24V3.42857H32.5714V0ZM36 0H32.5714V12H36V0Z" fill="#0091EA"/>
</svg>
